<svg xmlns="http://www.w3.org/2000/svg" viewBox="0 0 864.09 552.35"><defs><style>.cls-1{fill:#f6f6f6;}.cls-2{fill:#fafafc;}.cls-3{fill:#ffecef;}.cls-4{fill:#cb7db5;}.cls-5{fill:#fe9ce2;}.cls-6{fill:#fff;}.cls-7{fill:#e94e1b;}.cls-7,.cls-8,.cls-9{stroke:#fff;stroke-miterlimit:10;stroke-width:8.74px;}.cls-13,.cls-8{fill:#f9b233;}.cls-12,.cls-9{fill:#83ff9a;}.cls-10{fill:#1d1d1b;}.cls-11{fill:#575756;}</style></defs><g id="Layer_2" data-name="Layer 2"><g id="Layer_1-2" data-name="Layer 1"><path class="cls-1" d="M97.3,0h709a12,12,0,0,1,12,12V500.66a0,0,0,0,1,0,0H85.3a0,0,0,0,1,0,0V12A12,12,0,0,1,97.3,0Z"/><path class="cls-2" d="M42.45,240.31c7.72,0,7.73-12,0-12s-7.74,12,0,12Z"/><path class="cls-3" d="M110.9,12H791.67a12,12,0,0,1,12,12V499.5a0,0,0,0,1,0,0H98.9a0,0,0,0,1,0,0V24A12,12,0,0,1,110.9,12Z"/><rect class="cls-4" x="151.77" y="87.53" width="364.08" height="14.04" rx="6.79"/><rect class="cls-4" x="151.77" y="117.64" width="239.06" height="14.04" rx="6.79"/><rect class="cls-4" x="151.77" y="147.75" width="89.88" height="14.04" rx="6.79"/><rect class="cls-4" x="417.54" y="117.64" width="89.88" height="14.04" rx="6.79"/><rect class="cls-5" x="153.56" y="302.19" width="288.81" height="10.05" rx="4.86"/><rect class="cls-5" x="458.27" y="302.19" width="247.74" height="10.05" rx="4.86"/><rect class="cls-5" x="153.56" y="437.02" width="288.81" height="10.05" rx="4.86"/><rect class="cls-5" x="458.27" y="437.02" width="247.74" height="10.05" rx="4.86"/><rect class="cls-5" x="418.41" y="280.64" width="260.54" height="10.05" rx="4.86"/><rect class="cls-5" x="231.34" y="280.64" width="171.07" height="10.05" rx="4.86"/><rect class="cls-5" x="153.56" y="280.64" width="64.32" height="10.05" rx="4.86"/><rect class="cls-5" x="458.27" y="259.6" width="260.54" height="10.05" rx="4.86"/><rect class="cls-5" x="153.56" y="259.09" width="171.07" height="10.05" rx="4.86"/><rect class="cls-5" x="342.09" y="259.09" width="106.94" height="10.05" rx="4.86"/><rect class="cls-5" x="153.56" y="237.54" width="260.54" height="10.05" rx="4.86"/><rect class="cls-5" x="430.32" y="237.54" width="171.07" height="10.05" rx="4.86"/><rect class="cls-5" x="616.86" y="237.54" width="64.32" height="10.05" rx="4.86"/><rect class="cls-5" x="417.2" y="323.74" width="288.81" height="10.05" rx="4.86" transform="translate(1123.21 657.53) rotate(180)"/><rect class="cls-5" x="153.56" y="323.74" width="247.74" height="10.05" rx="4.86" transform="translate(554.86 657.53) rotate(180)"/><rect class="cls-5" x="153.56" y="345.29" width="260.54" height="10.05" rx="4.86" transform="translate(567.66 700.63) rotate(-180)"/><rect class="cls-5" x="430.1" y="345.29" width="95.12" height="10.05" rx="4.86" transform="translate(955.33 700.63) rotate(-180)"/><rect class="cls-5" x="538.69" y="345.29" width="64.32" height="10.05" rx="4.86" transform="translate(1141.7 700.63) rotate(-180)"/><rect class="cls-5" x="153.56" y="393.41" width="125.65" height="10.05" rx="4.86" transform="translate(432.77 796.88) rotate(180)"/><rect class="cls-5" x="625.59" y="393.92" width="93.22" height="10.05" rx="4.86" transform="translate(1344.39 797.9) rotate(180)"/><rect class="cls-5" x="288.45" y="393.92" width="319.68" height="10.05" rx="4.86" transform="translate(896.58 797.9) rotate(180)"/><rect class="cls-5" x="343.23" y="415.47" width="337.95" height="10.05" rx="4.86" transform="translate(1024.4 840.99) rotate(180)"/><rect class="cls-5" x="233.34" y="415.47" width="93.67" height="10.05" rx="4.86" transform="translate(560.35 840.99) rotate(-180)"/><rect class="cls-5" x="153.56" y="415.47" width="64.32" height="10.05" rx="4.86" transform="translate(371.44 840.99) rotate(180)"/><polygon points="56.87 381.01 54.52 383.3 56.87 385.7 59.22 383.3 56.87 381.01"/><rect class="cls-6" y="51.03" width="254.75" height="239.09" rx="12"/><path class="cls-7" d="M39,236.48H75.44a52.08,52.08,0,0,1,13.45-34.95L62.78,176A88.09,88.09,0,0,0,39,236.48Z"/><path class="cls-8" d="M127.69,147.74a88.11,88.11,0,0,0-59.15,22.59L94.74,196a52.16,52.16,0,0,1,65.24-.54l26.23-25.66A88.11,88.11,0,0,0,127.69,147.74Z"/><path class="cls-9" d="M216.43,236.48A88.07,88.07,0,0,0,192,175.37l-26.11,25.54a52.07,52.07,0,0,1,14,35.57Z"/><path class="cls-10" d="M109.41,100c.15,1.29,1.5,2.14,3.25,2.14s3-.84,3-2-.75-1.59-2.65-2l-2-.45c-2.9-.62-4.33-2.09-4.33-4.39,0-2.91,2.51-4.83,6-4.83,3.67,0,6,1.89,6,4.74h-3.09c-.11-1.33-1.28-2.14-2.93-2.14s-2.71.78-2.71,1.94c0,1,.76,1.52,2.57,1.93l1.91.41c3.15.67,4.53,2,4.53,4.43,0,3-2.48,5-6.38,5s-6.2-1.8-6.3-4.75Z"/><path class="cls-10" d="M131.36,104.52H120.93V88.78h10.43v2.71h-7.14v3.8H131v2.53h-6.73v4h7.14Z"/><path class="cls-10" d="M148.43,96.65c0,5-2.93,8.14-7.59,8.14s-7.59-3.13-7.59-8.14,2.92-8.15,7.59-8.15S148.43,91.63,148.43,96.65Zm-11.82,0c0,3.3,1.64,5.38,4.23,5.38s4.22-2.08,4.22-5.38-1.65-5.4-4.22-5.4S136.61,93.35,136.61,96.65Z"/><path class="cls-10" d="M53.63,123.46c0-5.08,2.89-8.14,7.45-8.14,3.78,0,6.66,2.4,6.91,5.92h-3.2a3.66,3.66,0,0,0-3.71-3.2c-2.49,0-4.09,2.09-4.09,5.41s1.58,5.43,4.1,5.43a3.56,3.56,0,0,0,3.71-3H68c-.37,3.51-3.06,5.74-6.92,5.74C56.49,131.61,53.63,128.54,53.63,123.46Z"/><path class="cls-10" d="M69.36,125.32c0-3.84,2.31-6.21,5.92-6.21s5.93,2.36,5.93,6.21-2.28,6.22-5.93,6.22S69.36,129.21,69.36,125.32Zm8.61,0c0-2.37-1-3.76-2.69-3.76s-2.69,1.4-2.69,3.76,1,3.77,2.69,3.77S78,127.71,78,125.32Z"/><path class="cls-10" d="M82.91,119.32H86v2.15h.06a3.77,3.77,0,0,1,3.75-2.32c2.67,0,4.17,1.68,4.17,4.48v7.7H90.79v-7c0-1.6-.75-2.5-2.25-2.5a2.41,2.41,0,0,0-2.45,2.68v6.85H82.91Z"/><path class="cls-10" d="M100.12,116.65v2.67h2.22v2.41h-2.22v5.84c0,.93.45,1.37,1.42,1.37a6,6,0,0,0,.8-.05v2.36a9,9,0,0,1-1.54.13c-2.78,0-3.87-.94-3.87-3.29v-6.36H95.3v-2.41h1.63v-2.67Z"/><path class="cls-10" d="M114.89,127.67c-.35,2.32-2.52,3.87-5.45,3.87-3.65,0-5.89-2.35-5.89-6.16s2.25-6.27,5.77-6.27,5.67,2.32,5.67,6v1h-8.3v.2a2.71,2.71,0,0,0,2.81,2.9,2.41,2.41,0,0,0,2.45-1.49Zm-8.16-3.58h5.18a2.49,2.49,0,0,0-2.55-2.6A2.62,2.62,0,0,0,106.73,124.09Z"/><path class="cls-10" d="M116.7,119.32h3.08v2.15h.06a3.77,3.77,0,0,1,3.75-2.32c2.67,0,4.17,1.68,4.17,4.48v7.7h-3.18v-7c0-1.6-.75-2.5-2.25-2.5a2.4,2.4,0,0,0-2.44,2.68v6.85H116.7Z"/><path class="cls-10" d="M133.91,116.65v2.67h2.22v2.41h-2.22v5.84c0,.93.45,1.37,1.42,1.37a6,6,0,0,0,.8-.05v2.36a9,9,0,0,1-1.54.13c-2.78,0-3.87-.94-3.87-3.29v-6.36h-1.63v-2.41h1.63v-2.67Z"/><path class="cls-10" d="M145.57,126.85c.15,1.3,1.5,2.15,3.25,2.15s3-.84,3-2-.76-1.59-2.65-2l-2.06-.44c-2.9-.63-4.33-2.1-4.33-4.4,0-2.9,2.51-4.82,6-4.82s6,1.88,6,4.73H151.7c-.11-1.33-1.28-2.14-2.92-2.14s-2.72.78-2.72,2c0,1,.76,1.51,2.58,1.93l1.9.4c3.16.68,4.53,2,4.53,4.43,0,3-2.48,5-6.38,5s-6.2-1.8-6.3-4.76Z"/><path class="cls-10" d="M164.75,123.75a2.34,2.34,0,0,0-2.43-2.13c-1.64,0-2.68,1.4-2.68,3.7s1,3.7,2.69,3.7a2.26,2.26,0,0,0,2.43-2.05h3c-.19,2.79-2.28,4.57-5.43,4.57-3.59,0-5.89-2.36-5.89-6.22s2.3-6.21,5.86-6.21c3.23,0,5.29,2,5.45,4.64Z"/><path class="cls-10" d="M168.87,125.32c0-3.84,2.32-6.21,5.93-6.21s5.92,2.36,5.92,6.21-2.28,6.22-5.92,6.22S168.87,129.21,168.87,125.32Zm8.61,0c0-2.37-1-3.76-2.68-3.76s-2.7,1.4-2.7,3.76,1,3.77,2.7,3.77S177.48,127.71,177.48,125.32Z"/><path class="cls-10" d="M182.43,119.32h3.07v2.15h.07a2.83,2.83,0,0,1,2.86-2.29,2.93,2.93,0,0,1,.92.12v2.81a3.38,3.38,0,0,0-1.17-.18,2.41,2.41,0,0,0-2.57,2.68v6.72h-3.18Z"/><path class="cls-10" d="M201.21,127.67c-.35,2.32-2.52,3.87-5.44,3.87-3.66,0-5.89-2.35-5.89-6.16s2.24-6.27,5.77-6.27,5.66,2.32,5.66,6v1H193v.2a2.7,2.7,0,0,0,2.8,2.9,2.43,2.43,0,0,0,2.46-1.49Zm-8.16-3.58h5.18a2.49,2.49,0,0,0-2.55-2.6A2.62,2.62,0,0,0,193.05,124.09Z"/><rect class="cls-6" x="609.34" y="335.6" width="254.75" height="216.74" rx="12"/><rect class="cls-11" x="657.82" y="392.49" width="157.78" height="6.09" rx="3.04"/><rect class="cls-11" x="657.82" y="405.54" width="103.6" height="6.09" rx="3.04"/><rect class="cls-1" x="657.82" y="451.57" width="103.6" height="6.09" rx="3.04"/><rect class="cls-1" x="657.82" y="463.49" width="103.6" height="6.09" rx="3.04"/><rect class="cls-1" x="657.82" y="477.18" width="103.6" height="6.09" rx="3.04"/><rect class="cls-1" x="657.82" y="489.38" width="103.6" height="6.09" rx="3.04"/><rect class="cls-11" x="657.82" y="418.59" width="38.95" height="6.09" rx="3.04"/><rect class="cls-12" x="776.65" y="406.61" width="38.95" height="6.09" rx="3.04"/><rect class="cls-13" x="776.65" y="452.53" width="38.95" height="6.09" rx="3.04"/><rect class="cls-12" x="776.65" y="464.57" width="38.95" height="6.09" rx="3.04"/><rect class="cls-12" x="776.65" y="478.25" width="38.95" height="6.09" rx="3.04"/><rect class="cls-12" x="776.65" y="490.45" width="38.95" height="6.09" rx="3.04"/></g></g></svg>