<svg xmlns="http://www.w3.org/2000/svg" viewBox="0 0 863.58 525.65"><defs><style>.cls-1{fill:#f6f6f6;}.cls-2{fill:#d9f9ff;}.cls-3{fill:#30c9e5;}.cls-4{fill:#575756;}.cls-5{fill:none;stroke:#575756;stroke-miterlimit:10;stroke-width:6px;}.cls-6{fill:#83ff9a;}.cls-7{fill:#fff;}</style></defs><g id="Layer_2" data-name="Layer 2"><g id="Layer_1-2" data-name="Layer 1"><path class="cls-1" d="M92.16,0h709a12,12,0,0,1,12,12V500.66a0,0,0,0,1,0,0h-733a0,0,0,0,1,0,0V12A12,12,0,0,1,92.16,0Z"/><path class="cls-2" d="M106.94,12.15H787.71a12,12,0,0,1,12,12V499.59a0,0,0,0,1,0,0H94.94a0,0,0,0,1,0,0V24.15A12,12,0,0,1,106.94,12.15Z"/><rect class="cls-3" x="238.3" y="423.75" width="93.67" height="10.05" rx="4.86" transform="translate(570.27 857.55) rotate(-180)"/><rect class="cls-4" x="156.73" y="95.81" width="364.08" height="14.04" rx="6.79"/><rect class="cls-4" x="156.73" y="125.92" width="239.06" height="14.04" rx="6.79"/><rect class="cls-4" x="156.73" y="156.03" width="89.88" height="14.04" rx="6.79"/><rect class="cls-4" x="422.5" y="125.92" width="89.88" height="14.04" rx="6.79"/><circle class="cls-4" cx="758.34" cy="268.65" r="18.37"/><circle class="cls-4" cx="758.34" cy="406.72" r="18.37"/><rect class="cls-4" x="428.17" y="239.47" width="187.03" height="23.15" rx="11.19"/><rect class="cls-3" x="158.52" y="310.47" width="288.81" height="10.05" rx="4.86"/><rect class="cls-3" x="463.23" y="310.47" width="247.74" height="10.05" rx="4.86"/><rect class="cls-3" x="158.52" y="445.3" width="288.81" height="10.05" rx="4.86"/><rect class="cls-3" x="463.23" y="445.3" width="247.74" height="10.05" rx="4.86"/><rect class="cls-3" x="423.38" y="288.92" width="260.54" height="10.05" rx="4.86"/><rect class="cls-3" x="236.3" y="288.92" width="171.07" height="10.05" rx="4.86"/><rect class="cls-3" x="158.52" y="288.92" width="64.32" height="10.05" rx="4.86"/><rect class="cls-3" x="463.23" y="267.88" width="260.54" height="10.05" rx="4.86"/><rect class="cls-3" x="158.52" y="267.37" width="171.07" height="10.05" rx="4.86"/><rect class="cls-3" x="347.05" y="267.37" width="106.94" height="10.05" rx="4.86"/><rect class="cls-3" x="158.52" y="245.82" width="260.54" height="10.05" rx="4.86"/><rect class="cls-3" x="435.28" y="245.82" width="171.07" height="10.05" rx="4.86"/><rect class="cls-3" x="621.82" y="245.82" width="64.32" height="10.05" rx="4.86"/><rect class="cls-3" x="422.16" y="332.02" width="288.81" height="10.05" rx="4.86" transform="translate(1133.13 674.09) rotate(180)"/><rect class="cls-3" x="158.52" y="332.02" width="247.74" height="10.05" rx="4.86" transform="translate(564.78 674.09) rotate(180)"/><rect class="cls-3" x="158.52" y="353.57" width="260.54" height="10.05" rx="4.86" transform="translate(577.58 717.18) rotate(-180)"/><rect class="cls-3" x="435.06" y="353.57" width="95.12" height="10.05" rx="4.86" transform="translate(965.25 717.18) rotate(-180)"/><rect class="cls-3" x="543.65" y="353.57" width="64.32" height="10.05" rx="4.86" transform="translate(1151.62 717.18) rotate(-180)"/><rect class="cls-3" x="158.52" y="401.69" width="125.65" height="10.05" rx="4.86" transform="translate(442.69 813.43) rotate(180)"/><rect class="cls-3" x="630.55" y="402.2" width="93.22" height="10.05" rx="4.86" transform="translate(1354.31 814.45) rotate(180)"/><rect class="cls-3" x="293.41" y="402.2" width="319.68" height="10.05" rx="4.86" transform="translate(906.5 814.45) rotate(180)"/><rect class="cls-3" x="348.19" y="423.75" width="337.95" height="10.05" rx="4.86" transform="translate(1034.32 857.55) rotate(180)"/><rect class="cls-3" x="158.52" y="423.75" width="64.32" height="10.05" rx="4.86" transform="translate(381.36 857.55) rotate(180)"/><line class="cls-5" x1="550.87" y1="227.72" x2="550.87" y2="241.96"/><path class="cls-6" d="M550.87,233.31a13.11,13.11,0,1,1,13.1-13.1A13.12,13.12,0,0,1,550.87,233.31Z"/><path class="cls-4" d="M550.87,209.6a10.61,10.61,0,1,1-10.6,10.61,10.6,10.6,0,0,1,10.6-10.61m0-5a15.61,15.61,0,1,0,15.6,15.61,15.62,15.62,0,0,0-15.6-15.61Z"/><rect class="cls-7" y="421.06" width="264.66" height="104.6" rx="12"/><circle class="cls-4" cx="54.7" cy="478.46" r="22.74"/><rect class="cls-3" x="100.88" y="465.41" width="102.09" height="8.16" rx="4.08" transform="translate(303.85 938.99) rotate(-180)"/><rect class="cls-3" x="100.88" y="483.34" width="52.26" height="8.16" rx="4.08" transform="translate(254.02 974.84) rotate(-180)"/><rect class="cls-7" x="598.92" y="57.55" width="264.66" height="104.6" rx="12"/><circle class="cls-4" cx="653.62" cy="109.85" r="22.74"/><rect class="cls-6" x="699.8" y="98.64" width="102.09" height="8.16" rx="4.08"/><rect class="cls-6" x="699.8" y="116.56" width="52.26" height="8.16" rx="4.08"/></g></g></svg>