<svg xmlns="http://www.w3.org/2000/svg" viewBox="0 0 1200.41 822.33"><defs><style>.cls-1{fill:#fafafc;}.cls-2{fill:#f6f6f6;}.cls-3{fill:#fd7a8c;}.cls-4{fill:#fee895;}.cls-5{fill:#80ebff;}.cls-6{fill:#575756;}.cls-7{fill:#d1d1d1;}</style></defs><g id="Layer_2" data-name="Layer 2"><g id="Layer_1-2" data-name="Layer 1"><rect class="cls-1" x="0.41" width="1200" height="822.33" rx="32.06"/><path class="cls-2" d="M32,0H198a0,0,0,0,1,0,0V822.33a0,0,0,0,1,0,0H32a32,32,0,0,1-32-32V32A32,32,0,0,1,32,0Z"/><circle class="cls-3" cx="99.02" cy="60.76" r="8.41"/><circle class="cls-4" cx="124.14" cy="60.76" r="8.41"/><circle class="cls-5" cx="75.07" cy="60.76" r="8.41"/><rect class="cls-6" x="46.39" y="132.59" width="88.45" height="11.82" rx="5.91"/><rect class="cls-7" x="46.39" y="157.94" width="57.46" height="11.82" rx="5.91"/><rect class="cls-7" x="46.39" y="183.29" width="57.46" height="11.82" rx="5.91"/><rect class="cls-7" x="46.39" y="208.63" width="57.46" height="11.82" rx="5.91"/><rect class="cls-6" x="46.39" y="303.1" width="88.45" height="11.82" rx="5.91"/><rect class="cls-7" x="46.39" y="328.44" width="57.46" height="11.82" rx="5.91"/><rect class="cls-7" x="46.39" y="353.79" width="57.46" height="11.82" rx="5.91"/><rect class="cls-7" x="37.93" y="742.71" width="57.46" height="11.82" rx="5.91"/><rect class="cls-7" x="37.93" y="768.06" width="118.46" height="11.82" rx="5.91"/><rect class="cls-7" x="245.19" y="132.59" width="306.44" height="11.82" rx="5.91"/><rect class="cls-7" x="245.19" y="157.94" width="201.21" height="11.82" rx="5.91"/><rect class="cls-7" x="245.19" y="183.29" width="75.65" height="11.82" rx="5.91"/><rect class="cls-7" x="493.27" y="157.94" width="75.65" height="11.82" rx="5.91"/></g></g></svg>