<svg xmlns="http://www.w3.org/2000/svg" viewBox="0 0 704.77 487.45"><defs><style>.cls-1{fill:#d9f9ff;}.cls-2{fill:#575756;}.cls-3{fill:#30c9e5;}.cls-4{fill:none;stroke:#575756;stroke-miterlimit:10;stroke-width:6px;}.cls-5{fill:#83ff9a;}</style></defs><g id="Layer_2" data-name="Layer 2"><g id="Layer_1-2" data-name="Layer 1"><path class="cls-1" d="M12,0H692.77a12,12,0,0,1,12,12V487.45a0,0,0,0,1,0,0H0a0,0,0,0,1,0,0V12A12,12,0,0,1,12,0Z"/><rect class="cls-2" x="45.72" y="98.49" width="364.08" height="14.04" rx="6.79"/><rect class="cls-2" x="45.72" y="128.6" width="239.06" height="14.04" rx="6.79"/><rect class="cls-2" x="45.72" y="158.71" width="89.88" height="14.04" rx="6.79"/><rect class="cls-2" x="311.49" y="128.6" width="89.88" height="14.04" rx="6.79"/><circle class="cls-2" cx="647.33" cy="271.33" r="18.37"/><circle class="cls-2" cx="647.33" cy="409.4" r="18.37"/><rect class="cls-2" x="317.16" y="242.16" width="187.03" height="23.15" rx="11.19"/><rect class="cls-3" x="47.51" y="313.15" width="288.81" height="10.05" rx="4.86"/><rect class="cls-3" x="352.22" y="313.15" width="247.74" height="10.05" rx="4.86"/><rect class="cls-3" x="47.51" y="447.98" width="288.81" height="10.05" rx="4.86"/><rect class="cls-3" x="352.22" y="447.98" width="247.74" height="10.05" rx="4.86"/><rect class="cls-3" x="312.37" y="291.6" width="260.54" height="10.05" rx="4.86"/><rect class="cls-3" x="125.29" y="291.6" width="171.07" height="10.05" rx="4.86"/><rect class="cls-3" x="47.51" y="291.6" width="64.32" height="10.05" rx="4.86"/><rect class="cls-3" x="352.22" y="270.56" width="260.54" height="10.05" rx="4.86"/><rect class="cls-3" x="47.51" y="270.05" width="171.07" height="10.05" rx="4.86"/><rect class="cls-3" x="236.04" y="270.05" width="106.94" height="10.05" rx="4.86"/><rect class="cls-3" x="47.51" y="248.5" width="260.54" height="10.05" rx="4.86"/><rect class="cls-3" x="324.27" y="248.5" width="171.07" height="10.05" rx="4.86"/><rect class="cls-3" x="510.81" y="248.5" width="64.32" height="10.05" rx="4.86"/><rect class="cls-3" x="311.15" y="334.7" width="288.81" height="10.05" rx="4.86" transform="translate(911.11 679.45) rotate(180)"/><rect class="cls-3" x="47.51" y="334.7" width="247.74" height="10.05" rx="4.86" transform="translate(342.76 679.45) rotate(180)"/><rect class="cls-3" x="47.51" y="356.25" width="260.54" height="10.05" rx="4.86" transform="translate(355.56 722.55) rotate(-180)"/><rect class="cls-3" x="324.05" y="356.25" width="95.12" height="10.05" rx="4.86" transform="translate(743.23 722.55) rotate(-180)"/><rect class="cls-3" x="432.64" y="356.25" width="64.32" height="10.05" rx="4.86" transform="translate(929.6 722.55) rotate(-180)"/><rect class="cls-3" x="47.51" y="404.37" width="125.65" height="10.05" rx="4.86" transform="translate(220.67 818.79) rotate(180)"/><rect class="cls-3" x="519.54" y="404.88" width="93.22" height="10.05" rx="4.86" transform="translate(1132.3 819.82) rotate(180)"/><rect class="cls-3" x="182.4" y="404.88" width="319.68" height="10.05" rx="4.86" transform="translate(684.48 819.82) rotate(180)"/><rect class="cls-3" x="237.18" y="426.43" width="337.95" height="10.05" rx="4.86" transform="translate(812.31 862.91) rotate(180)"/><rect class="cls-3" x="47.51" y="426.43" width="64.32" height="10.05" rx="4.86" transform="translate(159.34 862.91) rotate(180)"/><line class="cls-4" x1="439.86" y1="230.4" x2="439.86" y2="244.64"/><path class="cls-5" d="M439.86,236a13.1,13.1,0,1,1,13.1-13.1A13.12,13.12,0,0,1,439.86,236Z"/><path class="cls-2" d="M439.86,212.29a10.6,10.6,0,1,1-10.6,10.6,10.59,10.59,0,0,1,10.6-10.6m0-5a15.6,15.6,0,1,0,15.6,15.6,15.61,15.61,0,0,0-15.6-15.6Z"/></g></g></svg>