<svg width="250" height="70" viewBox="0 0 120 70" fill="#fff" xmlns="http://www.w3.org/2000/svg"><g xmlns="http://www.w3.org/2000/svg" id="Layer_2" data-name="Layer 2"><g id="Layer_1-2" data-name="Layer 1"><defs xmlns="http://www.w3.org/2000/svg"><style>.cls-1{fill:#ff4a22;}</style></defs><path d="M15.2,27A7.93,7.93,0,0,1,9,30.07c-5.11,0-9-3.85-9-10.6S3.81,8.84,9,8.84a7.76,7.76,0,0,1,6.24,3.1V1.63h5.36V29.57H15.2Zm0-11.14a5.83,5.83,0,0,0-4.6-2.3c-3,0-5.11,2.39-5.11,5.9s2.09,5.87,5.11,5.87A5.84,5.84,0,0,0,15.2,23Z"/><path d="M24.1,3.18a3.19,3.19,0,1,1,3.19,3.19A3.22,3.22,0,0,1,24.1,3.18Zm.55,6.16H30V29.57H24.65Z"/><path d="M37,30.91a8,8,0,0,0,6.32,2.51c2.56,0,5.57-1.13,5.57-5.11v-2a7.86,7.86,0,0,1-6.24,3.18c-5.06,0-8.91-3.56-8.91-10.3s3.81-10.3,8.91-10.3a7.76,7.76,0,0,1,6.24,3.1V9.34h5.36V28.18c0,7.71-5.94,9.59-10.93,9.59a12.2,12.2,0,0,1-8.71-3Zm11.89-15a5.74,5.74,0,0,0-4.56-2.3c-3,0-5.11,2.09-5.11,5.57s2.09,5.57,5.11,5.57a5.86,5.86,0,0,0,4.56-2.31Z"/><path d="M57.36,3.18a3.19,3.19,0,1,1,3.19,3.19A3.22,3.22,0,0,1,57.36,3.18Zm.55,6.16h5.32V29.57H57.91Z"/><path d="M70.12,24.54V14H66.77V9.34h3.35V3.81h5.37V9.34h4.1V14h-4.1v9.13c0,1.25.66,2.22,1.84,2.22a2.92,2.92,0,0,0,1.84-.59l1.13,4a6.57,6.57,0,0,1-4.44,1.3C72.13,30.07,70.12,28.14,70.12,24.54Z"/><path d="M95.84,27.47a8.38,8.38,0,0,1-6.41,2.6c-3.22,0-7-2.18-7-6.7,0-4.73,3.81-6.45,7-6.45,2.68,0,5.07.84,6.41,2.47V16.58c0-2-1.76-3.39-4.44-3.39a8.53,8.53,0,0,0-5.91,2.39l-2-3.56a13.27,13.27,0,0,1,8.84-3.18c4.61,0,8.84,1.84,8.84,7.66V29.57H95.84Zm0-5.27a5.3,5.3,0,0,0-4.27-1.76c-2.1,0-3.81,1.13-3.81,3s1.71,3,3.81,3a5.34,5.34,0,0,0,4.27-1.76Z"/><path d="M104.94,1.63h5.32V29.57h-5.32Z"/><path d="M113.65,19.43a10.7,10.7,0,0,1,21.4,0,10.7,10.7,0,0,1-21.4,0Zm15.87,0c0-3.14-1.89-5.86-5.2-5.86s-5.15,2.72-5.15,5.86,1.85,5.91,5.15,5.91S129.52,22.61,129.52,19.43Z"/><path d="M140.29,14h-3.35V9.34h3.35V8.25c0-4.4,2.85-7,6.83-7a8.6,8.6,0,0,1,3.85.84l-1.09,3.77a3.29,3.29,0,0,0-1.71-.42c-1.51,0-2.52,1-2.52,2.93v1h4.11V14h-4.11V29.57h-5.36Z"/><path d="M155.93,24.54V14h-6.65V9.34h6.65V3.81h5.36V9.34h4.1V14h-4.1v9.13c0,1.25.67,2.22,1.84,2.22a3,3,0,0,0,1.85-.59l1.13,4a6.59,6.59,0,0,1-4.44,1.3C157.94,30.07,155.93,28.14,155.93,24.54Z"/><path class="cls-1" d="M172,23.28a3.4,3.4,0,1,1-3.39,3.4A3.43,3.43,0,0,1,172,23.28Z"/></g></g></svg>