<svg width="176" height="78" viewBox="0 0 176 78" fill="none" xmlns="http://www.w3.org/2000/svg">
<path fill-rule="evenodd" clip-rule="evenodd" d="M78.4 28.8284C78.4 27.0611 79.8327 25.6284 81.6 25.6284H88.9373C89.786 25.6284 90.5999 25.9656 91.2 26.5657L96.6628 32.0284C97.2629 32.6285 97.6 33.4425 97.6 34.2912V48.0284C97.6 49.7957 96.1673 51.2284 94.4 51.2284H81.6C79.8327 51.2284 78.4 49.7957 78.4 48.0284V28.8284ZM81.6 38.4284C81.6 37.5448 82.3164 36.8284 83.2 36.8284H92.8C93.6837 36.8284 94.4 37.5448 94.4 38.4284C94.4 39.3121 93.6837 40.0284 92.8 40.0284H83.2C82.3164 40.0284 81.6 39.3121 81.6 38.4284ZM83.2 43.2284C82.3164 43.2284 81.6 43.9448 81.6 44.8284C81.6 45.7121 82.3164 46.4284 83.2 46.4284H92.8C93.6837 46.4284 94.4 45.7121 94.4 44.8284C94.4 43.9448 93.6837 43.2284 92.8 43.2284H83.2Z" fill="#D1D5DB"/>
</svg>
