<svg width="176" height="78" viewBox="0 0 176 78" fill="none" xmlns="http://www.w3.org/2000/svg">
<path fill-rule="evenodd" clip-rule="evenodd" d="M78.4 26.8284C78.4 25.0611 79.8327 23.6284 81.6 23.6284H88.9373C89.786 23.6284 90.5999 23.9656 91.2 24.5657L96.6628 30.0284C97.2629 30.6285 97.6 31.4425 97.6 32.2912V46.0284C97.6 47.7957 96.1673 49.2284 94.4 49.2284H81.6C79.8327 49.2284 78.4 47.7957 78.4 46.0284V26.8284ZM81.6 36.4284C81.6 35.5448 82.3164 34.8284 83.2 34.8284H92.8C93.6837 34.8284 94.4 35.5448 94.4 36.4284C94.4 37.3121 93.6837 38.0284 92.8 38.0284H83.2C82.3164 38.0284 81.6 37.3121 81.6 36.4284ZM83.2 41.2284C82.3164 41.2284 81.6 41.9448 81.6 42.8284C81.6 43.7121 82.3164 44.4284 83.2 44.4284H92.8C93.6837 44.4284 94.4 43.7121 94.4 42.8284C94.4 41.9448 93.6837 41.2284 92.8 41.2284H83.2Z" fill="#D1D5DB"/>
<path fill-rule="evenodd" clip-rule="evenodd" d="M90.9 24.8284C90.9 23.0611 92.3327 21.6284 94.1 21.6284H101.437C102.286 21.6284 103.1 21.9656 103.7 22.5657L109.163 28.0284C109.763 28.6285 110.1 29.4425 110.1 30.2912V44.0284C110.1 45.7957 108.667 47.2284 106.9 47.2284H94.1C92.3327 47.2284 90.9 45.7957 90.9 44.0284V24.8284ZM94.1 34.4284C94.1 33.5448 94.8164 32.8284 95.7 32.8284H105.3C106.184 32.8284 106.9 33.5448 106.9 34.4284C106.9 35.3121 106.184 36.0284 105.3 36.0284H95.7C94.8164 36.0284 94.1 35.3121 94.1 34.4284ZM95.7 39.2284C94.8164 39.2284 94.1 39.9448 94.1 40.8284C94.1 41.7121 94.8164 42.4284 95.7 42.4284H105.3C106.184 42.4284 106.9 41.7121 106.9 40.8284C106.9 39.9448 106.184 39.2284 105.3 39.2284H95.7Z" fill="#9CA3AF"/>
<path fill-rule="evenodd" clip-rule="evenodd" d="M66.9 30.8284C66.9 29.0611 68.3327 27.6284 70.1 27.6284H77.4373C78.286 27.6284 79.0999 27.9656 79.7 28.5657L85.1628 34.0284C85.7629 34.6285 86.1 35.4425 86.1 36.2912V50.0284C86.1 51.7957 84.6673 53.2284 82.9 53.2284H70.1C68.3327 53.2284 66.9 51.7957 66.9 50.0284V30.8284ZM70.1 40.4284C70.1 39.5448 70.8164 38.8284 71.7 38.8284H81.3C82.1837 38.8284 82.9 39.5448 82.9 40.4284C82.9 41.3121 82.1837 42.0284 81.3 42.0284H71.7C70.8164 42.0284 70.1 41.3121 70.1 40.4284ZM71.7 45.2284C70.8164 45.2284 70.1 45.9448 70.1 46.8284C70.1 47.7121 70.8164 48.4284 71.7 48.4284H81.3C82.1837 48.4284 82.9 47.7121 82.9 46.8284C82.9 45.9448 82.1837 45.2284 81.3 45.2284H71.7Z" fill="#F3F4F6"/>
<path fill-rule="evenodd" clip-rule="evenodd" d="M99.9 30.8284C99.9 29.0611 101.333 27.6284 103.1 27.6284H110.437C111.286 27.6284 112.1 27.9656 112.7 28.5657L118.163 34.0284C118.763 34.6285 119.1 35.4425 119.1 36.2912V50.0284C119.1 51.7957 117.667 53.2284 115.9 53.2284H103.1C101.333 53.2284 99.9 51.7957 99.9 50.0284V30.8284ZM103.1 40.4284C103.1 39.5448 103.816 38.8284 104.7 38.8284H114.3C115.184 38.8284 115.9 39.5448 115.9 40.4284C115.9 41.3121 115.184 42.0284 114.3 42.0284H104.7C103.816 42.0284 103.1 41.3121 103.1 40.4284ZM104.7 45.2284C103.816 45.2284 103.1 45.9448 103.1 46.8284C103.1 47.7121 103.816 48.4284 104.7 48.4284H114.3C115.184 48.4284 115.9 47.7121 115.9 46.8284C115.9 45.9448 115.184 45.2284 114.3 45.2284H104.7Z" fill="#D1D5DB"/>
<path fill-rule="evenodd" clip-rule="evenodd" d="M55.9 22.8284C55.9 21.0611 57.3327 19.6284 59.1 19.6284H66.4373C67.286 19.6284 68.0999 19.9656 68.7 20.5657L74.1628 26.0284C74.7629 26.6285 75.1 27.4425 75.1 28.2912V42.0284C75.1 43.7957 73.6673 45.2284 71.9 45.2284H59.1C57.3327 45.2284 55.9 43.7957 55.9 42.0284V22.8284ZM59.1 32.4284C59.1 31.5448 59.8164 30.8284 60.7 30.8284H70.3C71.1837 30.8284 71.9 31.5448 71.9 32.4284C71.9 33.3121 71.1837 34.0284 70.3 34.0284H60.7C59.8164 34.0284 59.1 33.3121 59.1 32.4284ZM60.7 37.2284C59.8164 37.2284 59.1 37.9448 59.1 38.8284C59.1 39.7121 59.8164 40.4284 60.7 40.4284H70.3C71.1837 40.4284 71.9 39.7121 71.9 38.8284C71.9 37.9448 71.1837 37.2284 70.3 37.2284H60.7Z" fill="#D1D5DB"/>
<path fill-rule="evenodd" clip-rule="evenodd" d="M109.9 35.8284C109.9 34.0611 111.333 32.6284 113.1 32.6284H120.437C121.286 32.6284 122.1 32.9656 122.7 33.5657L128.163 39.0284C128.763 39.6285 129.1 40.4425 129.1 41.2912V55.0284C129.1 56.7957 127.667 58.2284 125.9 58.2284H113.1C111.333 58.2284 109.9 56.7957 109.9 55.0284V35.8284ZM113.1 45.4284C113.1 44.5448 113.816 43.8284 114.7 43.8284H124.3C125.184 43.8284 125.9 44.5448 125.9 45.4284C125.9 46.3121 125.184 47.0284 124.3 47.0284H114.7C113.816 47.0284 113.1 46.3121 113.1 45.4284ZM114.7 50.2284C113.816 50.2284 113.1 50.9448 113.1 51.8284C113.1 52.7121 113.816 53.4284 114.7 53.4284H124.3C125.184 53.4284 125.9 52.7121 125.9 51.8284C125.9 50.9448 125.184 50.2284 124.3 50.2284H114.7Z" fill="#9CA3AF"/>
<path fill-rule="evenodd" clip-rule="evenodd" d="M47.4 32.8284C47.4 31.0611 48.8327 29.6284 50.6 29.6284H57.9373C58.786 29.6284 59.5999 29.9656 60.2 30.5657L65.6628 36.0284C66.2629 36.6285 66.6 37.4425 66.6 38.2912V52.0284C66.6 53.7957 65.1673 55.2284 63.4 55.2284H50.6C48.8327 55.2284 47.4 53.7957 47.4 52.0284V32.8284ZM50.6 42.4284C50.6 41.5448 51.3164 40.8284 52.2 40.8284H61.8C62.6837 40.8284 63.4 41.5448 63.4 42.4284C63.4 43.3121 62.6837 44.0284 61.8 44.0284H52.2C51.3164 44.0284 50.6 43.3121 50.6 42.4284ZM52.2 47.2284C51.3164 47.2284 50.6 47.9448 50.6 48.8284C50.6 49.7121 51.3164 50.4284 52.2 50.4284H61.8C62.6837 50.4284 63.4 49.7121 63.4 48.8284C63.4 47.9448 62.6837 47.2284 61.8 47.2284H52.2Z" fill="#9CA3AF"/>
</svg>
