<svg width="176" height="78" viewBox="0 0 176 78" fill="none" xmlns="http://www.w3.org/2000/svg">
<path fill-rule="evenodd" clip-rule="evenodd" d="M94.4 10.8284C94.4 9.06111 95.8327 7.62842 97.6 7.62842H104.937C105.786 7.62842 106.6 7.96556 107.2 8.56568L112.663 14.0284C113.263 14.6285 113.6 15.4425 113.6 16.2912V30.0284C113.6 31.7957 112.167 33.2284 110.4 33.2284H97.6C95.8327 33.2284 94.4 31.7957 94.4 30.0284V10.8284ZM97.6 20.4284C97.6 19.5448 98.3164 18.8284 99.2 18.8284H108.8C109.684 18.8284 110.4 19.5448 110.4 20.4284C110.4 21.3121 109.684 22.0284 108.8 22.0284H99.2C98.3164 22.0284 97.6 21.3121 97.6 20.4284ZM99.2 25.2284C98.3164 25.2284 97.6 25.9448 97.6 26.8284C97.6 27.7121 98.3164 28.4284 99.2 28.4284H108.8C109.684 28.4284 110.4 27.7121 110.4 26.8284C110.4 25.9448 109.684 25.2284 108.8 25.2284H99.2Z" fill="#D1D5DB"/>
<path fill-rule="evenodd" clip-rule="evenodd" d="M106.9 8.82842C106.9 7.06111 108.333 5.62842 110.1 5.62842H117.437C118.286 5.62842 119.1 5.96556 119.7 6.56568L125.163 12.0284C125.763 12.6285 126.1 13.4425 126.1 14.2912V28.0284C126.1 29.7957 124.667 31.2284 122.9 31.2284H110.1C108.333 31.2284 106.9 29.7957 106.9 28.0284V8.82842ZM110.1 18.4284C110.1 17.5448 110.816 16.8284 111.7 16.8284H121.3C122.184 16.8284 122.9 17.5448 122.9 18.4284C122.9 19.3121 122.184 20.0284 121.3 20.0284H111.7C110.816 20.0284 110.1 19.3121 110.1 18.4284ZM111.7 23.2284C110.816 23.2284 110.1 23.9448 110.1 24.8284C110.1 25.7121 110.816 26.4284 111.7 26.4284H121.3C122.184 26.4284 122.9 25.7121 122.9 24.8284C122.9 23.9448 122.184 23.2284 121.3 23.2284H111.7Z" fill="#9CA3AF"/>
<path fill-rule="evenodd" clip-rule="evenodd" d="M82.9 14.8284C82.9 13.0611 84.3327 11.6284 86.1 11.6284H93.4373C94.286 11.6284 95.0999 11.9656 95.7 12.5657L101.163 18.0284C101.763 18.6285 102.1 19.4425 102.1 20.2912V34.0284C102.1 35.7957 100.667 37.2284 98.9 37.2284H86.1C84.3327 37.2284 82.9 35.7957 82.9 34.0284V14.8284ZM86.1 24.4284C86.1 23.5448 86.8164 22.8284 87.7 22.8284H97.3C98.1837 22.8284 98.9 23.5448 98.9 24.4284C98.9 25.3121 98.1837 26.0284 97.3 26.0284H87.7C86.8164 26.0284 86.1 25.3121 86.1 24.4284ZM87.7 29.2284C86.8164 29.2284 86.1 29.9448 86.1 30.8284C86.1 31.7121 86.8164 32.4284 87.7 32.4284H97.3C98.1837 32.4284 98.9 31.7121 98.9 30.8284C98.9 29.9448 98.1837 29.2284 97.3 29.2284H87.7Z" fill="#F3F4F6"/>
<path fill-rule="evenodd" clip-rule="evenodd" d="M115.9 14.8284C115.9 13.0611 117.333 11.6284 119.1 11.6284H126.437C127.286 11.6284 128.1 11.9656 128.7 12.5657L134.163 18.0284C134.763 18.6285 135.1 19.4425 135.1 20.2912V34.0284C135.1 35.7957 133.667 37.2284 131.9 37.2284H119.1C117.333 37.2284 115.9 35.7957 115.9 34.0284V14.8284ZM119.1 24.4284C119.1 23.5448 119.816 22.8284 120.7 22.8284H130.3C131.184 22.8284 131.9 23.5448 131.9 24.4284C131.9 25.3121 131.184 26.0284 130.3 26.0284H120.7C119.816 26.0284 119.1 25.3121 119.1 24.4284ZM120.7 29.2284C119.816 29.2284 119.1 29.9448 119.1 30.8284C119.1 31.7121 119.816 32.4284 120.7 32.4284H130.3C131.184 32.4284 131.9 31.7121 131.9 30.8284C131.9 29.9448 131.184 29.2284 130.3 29.2284H120.7Z" fill="#D1D5DB"/>
<path fill-rule="evenodd" clip-rule="evenodd" d="M71.9 6.82842C71.9 5.06111 73.3327 3.62842 75.1 3.62842H82.4373C83.286 3.62842 84.0999 3.96556 84.7 4.56568L90.1628 10.0284C90.7629 10.6285 91.1 11.4425 91.1 12.2912V26.0284C91.1 27.7957 89.6673 29.2284 87.9 29.2284H75.1C73.3327 29.2284 71.9 27.7957 71.9 26.0284V6.82842ZM75.1 16.4284C75.1 15.5448 75.8164 14.8284 76.7 14.8284H86.3C87.1837 14.8284 87.9 15.5448 87.9 16.4284C87.9 17.3121 87.1837 18.0284 86.3 18.0284H76.7C75.8164 18.0284 75.1 17.3121 75.1 16.4284ZM76.7 21.2284C75.8164 21.2284 75.1 21.9448 75.1 22.8284C75.1 23.7121 75.8164 24.4284 76.7 24.4284H86.3C87.1837 24.4284 87.9 23.7121 87.9 22.8284C87.9 21.9448 87.1837 21.2284 86.3 21.2284H76.7Z" fill="#D1D5DB"/>
<path fill-rule="evenodd" clip-rule="evenodd" d="M125.9 19.8284C125.9 18.0611 127.333 16.6284 129.1 16.6284H136.437C137.286 16.6284 138.1 16.9656 138.7 17.5657L144.163 23.0284C144.763 23.6285 145.1 24.4425 145.1 25.2912V39.0284C145.1 40.7957 143.667 42.2284 141.9 42.2284H129.1C127.333 42.2284 125.9 40.7957 125.9 39.0284V19.8284ZM129.1 29.4284C129.1 28.5448 129.816 27.8284 130.7 27.8284H140.3C141.184 27.8284 141.9 28.5448 141.9 29.4284C141.9 30.3121 141.184 31.0284 140.3 31.0284H130.7C129.816 31.0284 129.1 30.3121 129.1 29.4284ZM130.7 34.2284C129.816 34.2284 129.1 34.9448 129.1 35.8284C129.1 36.7121 129.816 37.4284 130.7 37.4284H140.3C141.184 37.4284 141.9 36.7121 141.9 35.8284C141.9 34.9448 141.184 34.2284 140.3 34.2284H130.7Z" fill="#9CA3AF"/>
<path fill-rule="evenodd" clip-rule="evenodd" d="M63.4 16.8284C63.4 15.0611 64.8327 13.6284 66.6 13.6284H73.9373C74.786 13.6284 75.5999 13.9656 76.2 14.5657L81.6628 20.0284C82.2629 20.6285 82.6 21.4425 82.6 22.2912V36.0284C82.6 37.7957 81.1673 39.2284 79.4 39.2284H66.6C64.8327 39.2284 63.4 37.7957 63.4 36.0284V16.8284ZM66.6 26.4284C66.6 25.5448 67.3164 24.8284 68.2 24.8284H77.8C78.6837 24.8284 79.4 25.5448 79.4 26.4284C79.4 27.3121 78.6837 28.0284 77.8 28.0284H68.2C67.3164 28.0284 66.6 27.3121 66.6 26.4284ZM68.2 31.2284C67.3164 31.2284 66.6 31.9448 66.6 32.8284C66.6 33.7121 67.3164 34.4284 68.2 34.4284H77.8C78.6837 34.4284 79.4 33.7121 79.4 32.8284C79.4 31.9448 78.6837 31.2284 77.8 31.2284H68.2Z" fill="#9CA3AF"/>
<path fill-rule="evenodd" clip-rule="evenodd" d="M38.4 18.8284C38.4 17.0611 39.8327 15.6284 41.6 15.6284H48.9373C49.786 15.6284 50.5999 15.9656 51.2 16.5657L56.6628 22.0284C57.2629 22.6285 57.6 23.4425 57.6 24.2912V38.0284C57.6 39.7957 56.1673 41.2284 54.4 41.2284H41.6C39.8327 41.2284 38.4 39.7957 38.4 38.0284V18.8284ZM41.6 28.4284C41.6 27.5448 42.3164 26.8284 43.2 26.8284H52.8C53.6837 26.8284 54.4 27.5448 54.4 28.4284C54.4 29.3121 53.6837 30.0284 52.8 30.0284H43.2C42.3164 30.0284 41.6 29.3121 41.6 28.4284ZM43.2 33.2284C42.3164 33.2284 41.6 33.9448 41.6 34.8284C41.6 35.7121 42.3164 36.4284 43.2 36.4284H52.8C53.6837 36.4284 54.4 35.7121 54.4 34.8284C54.4 33.9448 53.6837 33.2284 52.8 33.2284H43.2Z" fill="#D1D5DB"/>
<path fill-rule="evenodd" clip-rule="evenodd" d="M50.9 16.8284C50.9 15.0611 52.3327 13.6284 54.1 13.6284H61.4373C62.286 13.6284 63.0999 13.9656 63.7 14.5657L69.1628 20.0284C69.7629 20.6285 70.1 21.4425 70.1 22.2912V36.0284C70.1 37.7957 68.6673 39.2284 66.9 39.2284H54.1C52.3327 39.2284 50.9 37.7957 50.9 36.0284V16.8284ZM54.1 26.4284C54.1 25.5448 54.8164 24.8284 55.7 24.8284H65.3C66.1837 24.8284 66.9 25.5448 66.9 26.4284C66.9 27.3121 66.1837 28.0284 65.3 28.0284H55.7C54.8164 28.0284 54.1 27.3121 54.1 26.4284ZM55.7 31.2284C54.8164 31.2284 54.1 31.9448 54.1 32.8284C54.1 33.7121 54.8164 34.4284 55.7 34.4284H65.3C66.1837 34.4284 66.9 33.7121 66.9 32.8284C66.9 31.9448 66.1837 31.2284 65.3 31.2284H55.7Z" fill="#9CA3AF"/>
<path fill-rule="evenodd" clip-rule="evenodd" d="M26.9 22.8284C26.9 21.0611 28.3327 19.6284 30.1 19.6284H37.4373C38.286 19.6284 39.0999 19.9656 39.7 20.5657L45.1628 26.0284C45.7629 26.6285 46.1 27.4425 46.1 28.2912V42.0284C46.1 43.7957 44.6673 45.2284 42.9 45.2284H30.1C28.3327 45.2284 26.9 43.7957 26.9 42.0284V22.8284ZM30.1 32.4284C30.1 31.5448 30.8164 30.8284 31.7 30.8284H41.3C42.1837 30.8284 42.9 31.5448 42.9 32.4284C42.9 33.3121 42.1837 34.0284 41.3 34.0284H31.7C30.8164 34.0284 30.1 33.3121 30.1 32.4284ZM31.7 37.2284C30.8164 37.2284 30.1 37.9448 30.1 38.8284C30.1 39.7121 30.8164 40.4284 31.7 40.4284H41.3C42.1837 40.4284 42.9 39.7121 42.9 38.8284C42.9 37.9448 42.1837 37.2284 41.3 37.2284H31.7Z" fill="#F3F4F6"/>
<path fill-rule="evenodd" clip-rule="evenodd" d="M59.9 22.8284C59.9 21.0611 61.3327 19.6284 63.1 19.6284H70.4373C71.286 19.6284 72.0999 19.9656 72.7 20.5657L78.1628 26.0284C78.7629 26.6285 79.1 27.4425 79.1 28.2912V42.0284C79.1 43.7957 77.6673 45.2284 75.9 45.2284H63.1C61.3327 45.2284 59.9 43.7957 59.9 42.0284V22.8284ZM63.1 32.4284C63.1 31.5448 63.8164 30.8284 64.7 30.8284H74.3C75.1837 30.8284 75.9 31.5448 75.9 32.4284C75.9 33.3121 75.1837 34.0284 74.3 34.0284H64.7C63.8164 34.0284 63.1 33.3121 63.1 32.4284ZM64.7 37.2284C63.8164 37.2284 63.1 37.9448 63.1 38.8284C63.1 39.7121 63.8164 40.4284 64.7 40.4284H74.3C75.1837 40.4284 75.9 39.7121 75.9 38.8284C75.9 37.9448 75.1837 37.2284 74.3 37.2284H64.7Z" fill="#D1D5DB"/>
<path fill-rule="evenodd" clip-rule="evenodd" d="M15.9 14.8284C15.9 13.0611 17.3327 11.6284 19.1 11.6284H26.4373C27.286 11.6284 28.0999 11.9656 28.7 12.5657L34.1628 18.0284C34.7629 18.6285 35.1 19.4425 35.1 20.2912V34.0284C35.1 35.7957 33.6673 37.2284 31.9 37.2284H19.1C17.3327 37.2284 15.9 35.7957 15.9 34.0284V14.8284ZM19.1 24.4284C19.1 23.5448 19.8164 22.8284 20.7 22.8284H30.3C31.1837 22.8284 31.9 23.5448 31.9 24.4284C31.9 25.3121 31.1837 26.0284 30.3 26.0284H20.7C19.8164 26.0284 19.1 25.3121 19.1 24.4284ZM20.7 29.2284C19.8164 29.2284 19.1 29.9448 19.1 30.8284C19.1 31.7121 19.8164 32.4284 20.7 32.4284H30.3C31.1837 32.4284 31.9 31.7121 31.9 30.8284C31.9 29.9448 31.1837 29.2284 30.3 29.2284H20.7Z" fill="#D1D5DB"/>
<path fill-rule="evenodd" clip-rule="evenodd" d="M69.9 27.8284C69.9 26.0611 71.3327 24.6284 73.1 24.6284H80.4373C81.286 24.6284 82.0999 24.9656 82.7 25.5657L88.1628 31.0284C88.7629 31.6285 89.1 32.4425 89.1 33.2912V47.0284C89.1 48.7957 87.6673 50.2284 85.9 50.2284H73.1C71.3327 50.2284 69.9 48.7957 69.9 47.0284V27.8284ZM73.1 37.4284C73.1 36.5448 73.8164 35.8284 74.7 35.8284H84.3C85.1837 35.8284 85.9 36.5448 85.9 37.4284C85.9 38.3121 85.1837 39.0284 84.3 39.0284H74.7C73.8164 39.0284 73.1 38.3121 73.1 37.4284ZM74.7 42.2284C73.8164 42.2284 73.1 42.9448 73.1 43.8284C73.1 44.7121 73.8164 45.4284 74.7 45.4284H84.3C85.1837 45.4284 85.9 44.7121 85.9 43.8284C85.9 42.9448 85.1837 42.2284 84.3 42.2284H74.7Z" fill="#9CA3AF"/>
<path fill-rule="evenodd" clip-rule="evenodd" d="M7.40002 24.8284C7.40002 23.0611 8.83271 21.6284 10.6 21.6284H17.9373C18.786 21.6284 19.5999 21.9656 20.2 22.5657L25.6628 28.0284C26.2629 28.6285 26.6 29.4425 26.6 30.2912V44.0284C26.6 45.7957 25.1673 47.2284 23.4 47.2284H10.6C8.83271 47.2284 7.40002 45.7957 7.40002 44.0284V24.8284ZM10.6 34.4284C10.6 33.5448 11.3164 32.8284 12.2 32.8284H21.8C22.6837 32.8284 23.4 33.5448 23.4 34.4284C23.4 35.3121 22.6837 36.0284 21.8 36.0284H12.2C11.3164 36.0284 10.6 35.3121 10.6 34.4284ZM12.2 39.2284C11.3164 39.2284 10.6 39.9448 10.6 40.8284C10.6 41.7121 11.3164 42.4284 12.2 42.4284H21.8C22.6837 42.4284 23.4 41.7121 23.4 40.8284C23.4 39.9448 22.6837 39.2284 21.8 39.2284H12.2Z" fill="#9CA3AF"/>
<path fill-rule="evenodd" clip-rule="evenodd" d="M62.4 42.8284C62.4 41.0611 63.8327 39.6284 65.6 39.6284H72.9373C73.786 39.6284 74.5999 39.9656 75.2 40.5657L80.6628 46.0284C81.2629 46.6285 81.6 47.4425 81.6 48.2912V62.0284C81.6 63.7957 80.1673 65.2284 78.4 65.2284H65.6C63.8327 65.2284 62.4 63.7957 62.4 62.0284V42.8284ZM65.6 52.4284C65.6 51.5448 66.3164 50.8284 67.2 50.8284H76.8C77.6837 50.8284 78.4 51.5448 78.4 52.4284C78.4 53.3121 77.6837 54.0284 76.8 54.0284H67.2C66.3164 54.0284 65.6 53.3121 65.6 52.4284ZM67.2 57.2284C66.3164 57.2284 65.6 57.9448 65.6 58.8284C65.6 59.7121 66.3164 60.4284 67.2 60.4284H76.8C77.6837 60.4284 78.4 59.7121 78.4 58.8284C78.4 57.9448 77.6837 57.2284 76.8 57.2284H67.2Z" fill="#D1D5DB"/>
<path fill-rule="evenodd" clip-rule="evenodd" d="M74.9 40.8284C74.9 39.0611 76.3327 37.6284 78.1 37.6284H85.4373C86.286 37.6284 87.0999 37.9656 87.7 38.5657L93.1628 44.0284C93.7629 44.6285 94.1 45.4425 94.1 46.2912V60.0284C94.1 61.7957 92.6673 63.2284 90.9 63.2284H78.1C76.3327 63.2284 74.9 61.7957 74.9 60.0284V40.8284ZM78.1 50.4284C78.1 49.5448 78.8164 48.8284 79.7 48.8284H89.3C90.1837 48.8284 90.9 49.5448 90.9 50.4284C90.9 51.3121 90.1837 52.0284 89.3 52.0284H79.7C78.8164 52.0284 78.1 51.3121 78.1 50.4284ZM79.7 55.2284C78.8164 55.2284 78.1 55.9448 78.1 56.8284C78.1 57.7121 78.8164 58.4284 79.7 58.4284H89.3C90.1837 58.4284 90.9 57.7121 90.9 56.8284C90.9 55.9448 90.1837 55.2284 89.3 55.2284H79.7Z" fill="#9CA3AF"/>
<path fill-rule="evenodd" clip-rule="evenodd" d="M50.9 46.8284C50.9 45.0611 52.3327 43.6284 54.1 43.6284H61.4373C62.286 43.6284 63.0999 43.9656 63.7 44.5657L69.1628 50.0284C69.7629 50.6285 70.1 51.4425 70.1 52.2912V66.0284C70.1 67.7957 68.6673 69.2284 66.9 69.2284H54.1C52.3327 69.2284 50.9 67.7957 50.9 66.0284V46.8284ZM54.1 56.4284C54.1 55.5448 54.8164 54.8284 55.7 54.8284H65.3C66.1837 54.8284 66.9 55.5448 66.9 56.4284C66.9 57.3121 66.1837 58.0284 65.3 58.0284H55.7C54.8164 58.0284 54.1 57.3121 54.1 56.4284ZM55.7 61.2284C54.8164 61.2284 54.1 61.9448 54.1 62.8284C54.1 63.7121 54.8164 64.4284 55.7 64.4284H65.3C66.1837 64.4284 66.9 63.7121 66.9 62.8284C66.9 61.9448 66.1837 61.2284 65.3 61.2284H55.7Z" fill="#F3F4F6"/>
<path fill-rule="evenodd" clip-rule="evenodd" d="M83.9 46.8284C83.9 45.0611 85.3327 43.6284 87.1 43.6284H94.4373C95.286 43.6284 96.0999 43.9656 96.7 44.5657L102.163 50.0284C102.763 50.6285 103.1 51.4425 103.1 52.2912V66.0284C103.1 67.7957 101.667 69.2284 99.9 69.2284H87.1C85.3327 69.2284 83.9 67.7957 83.9 66.0284V46.8284ZM87.1 56.4284C87.1 55.5448 87.8164 54.8284 88.7 54.8284H98.3C99.1837 54.8284 99.9 55.5448 99.9 56.4284C99.9 57.3121 99.1837 58.0284 98.3 58.0284H88.7C87.8164 58.0284 87.1 57.3121 87.1 56.4284ZM88.7 61.2284C87.8164 61.2284 87.1 61.9448 87.1 62.8284C87.1 63.7121 87.8164 64.4284 88.7 64.4284H98.3C99.1837 64.4284 99.9 63.7121 99.9 62.8284C99.9 61.9448 99.1837 61.2284 98.3 61.2284H88.7Z" fill="#D1D5DB"/>
<path fill-rule="evenodd" clip-rule="evenodd" d="M39.9 38.8284C39.9 37.0611 41.3327 35.6284 43.1 35.6284H50.4373C51.286 35.6284 52.0999 35.9656 52.7 36.5657L58.1628 42.0284C58.7629 42.6285 59.1 43.4425 59.1 44.2912V58.0284C59.1 59.7957 57.6673 61.2284 55.9 61.2284H43.1C41.3327 61.2284 39.9 59.7957 39.9 58.0284V38.8284ZM43.1 48.4284C43.1 47.5448 43.8164 46.8284 44.7 46.8284H54.3C55.1837 46.8284 55.9 47.5448 55.9 48.4284C55.9 49.3121 55.1837 50.0284 54.3 50.0284H44.7C43.8164 50.0284 43.1 49.3121 43.1 48.4284ZM44.7 53.2284C43.8164 53.2284 43.1 53.9448 43.1 54.8284C43.1 55.7121 43.8164 56.4284 44.7 56.4284H54.3C55.1837 56.4284 55.9 55.7121 55.9 54.8284C55.9 53.9448 55.1837 53.2284 54.3 53.2284H44.7Z" fill="#D1D5DB"/>
<path fill-rule="evenodd" clip-rule="evenodd" d="M93.9 51.8284C93.9 50.0611 95.3327 48.6284 97.1 48.6284H104.437C105.286 48.6284 106.1 48.9656 106.7 49.5657L112.163 55.0284C112.763 55.6285 113.1 56.4425 113.1 57.2912V71.0284C113.1 72.7957 111.667 74.2284 109.9 74.2284H97.1C95.3327 74.2284 93.9 72.7957 93.9 71.0284V51.8284ZM97.1 61.4284C97.1 60.5448 97.8164 59.8284 98.7 59.8284H108.3C109.184 59.8284 109.9 60.5448 109.9 61.4284C109.9 62.3121 109.184 63.0284 108.3 63.0284H98.7C97.8164 63.0284 97.1 62.3121 97.1 61.4284ZM98.7 66.2284C97.8164 66.2284 97.1 66.9448 97.1 67.8284C97.1 68.7121 97.8164 69.4284 98.7 69.4284H108.3C109.184 69.4284 109.9 68.7121 109.9 67.8284C109.9 66.9448 109.184 66.2284 108.3 66.2284H98.7Z" fill="#9CA3AF"/>
<path fill-rule="evenodd" clip-rule="evenodd" d="M31.4 48.8284C31.4 47.0611 32.8327 45.6284 34.6 45.6284H41.9373C42.786 45.6284 43.5999 45.9656 44.2 46.5657L49.6628 52.0284C50.2629 52.6285 50.6 53.4425 50.6 54.2912V68.0284C50.6 69.7957 49.1673 71.2284 47.4 71.2284H34.6C32.8327 71.2284 31.4 69.7957 31.4 68.0284V48.8284ZM34.6 58.4284C34.6 57.5448 35.3164 56.8284 36.2 56.8284H45.8C46.6837 56.8284 47.4 57.5448 47.4 58.4284C47.4 59.3121 46.6837 60.0284 45.8 60.0284H36.2C35.3164 60.0284 34.6 59.3121 34.6 58.4284ZM36.2 63.2284C35.3164 63.2284 34.6 63.9448 34.6 64.8284C34.6 65.7121 35.3164 66.4284 36.2 66.4284H45.8C46.6837 66.4284 47.4 65.7121 47.4 64.8284C47.4 63.9448 46.6837 63.2284 45.8 63.2284H36.2Z" fill="#9CA3AF"/>
<path fill-rule="evenodd" clip-rule="evenodd" d="M118.4 34.8284C118.4 33.0611 119.833 31.6284 121.6 31.6284H128.937C129.786 31.6284 130.6 31.9656 131.2 32.5657L136.663 38.0284C137.263 38.6285 137.6 39.4425 137.6 40.2912V54.0284C137.6 55.7957 136.167 57.2284 134.4 57.2284H121.6C119.833 57.2284 118.4 55.7957 118.4 54.0284V34.8284ZM121.6 44.4284C121.6 43.5448 122.316 42.8284 123.2 42.8284H132.8C133.684 42.8284 134.4 43.5448 134.4 44.4284C134.4 45.3121 133.684 46.0284 132.8 46.0284H123.2C122.316 46.0284 121.6 45.3121 121.6 44.4284ZM123.2 49.2284C122.316 49.2284 121.6 49.9448 121.6 50.8284C121.6 51.7121 122.316 52.4284 123.2 52.4284H132.8C133.684 52.4284 134.4 51.7121 134.4 50.8284C134.4 49.9448 133.684 49.2284 132.8 49.2284H123.2Z" fill="#D1D5DB"/>
<path fill-rule="evenodd" clip-rule="evenodd" d="M130.9 32.8284C130.9 31.0611 132.333 29.6284 134.1 29.6284H141.437C142.286 29.6284 143.1 29.9656 143.7 30.5657L149.163 36.0284C149.763 36.6285 150.1 37.4425 150.1 38.2912V52.0284C150.1 53.7957 148.667 55.2284 146.9 55.2284H134.1C132.333 55.2284 130.9 53.7957 130.9 52.0284V32.8284ZM134.1 42.4284C134.1 41.5448 134.816 40.8284 135.7 40.8284H145.3C146.184 40.8284 146.9 41.5448 146.9 42.4284C146.9 43.3121 146.184 44.0284 145.3 44.0284H135.7C134.816 44.0284 134.1 43.3121 134.1 42.4284ZM135.7 47.2284C134.816 47.2284 134.1 47.9448 134.1 48.8284C134.1 49.7121 134.816 50.4284 135.7 50.4284H145.3C146.184 50.4284 146.9 49.7121 146.9 48.8284C146.9 47.9448 146.184 47.2284 145.3 47.2284H135.7Z" fill="#9CA3AF"/>
<path fill-rule="evenodd" clip-rule="evenodd" d="M106.9 38.8284C106.9 37.0611 108.333 35.6284 110.1 35.6284H117.437C118.286 35.6284 119.1 35.9656 119.7 36.5657L125.163 42.0284C125.763 42.6285 126.1 43.4425 126.1 44.2912V58.0284C126.1 59.7957 124.667 61.2284 122.9 61.2284H110.1C108.333 61.2284 106.9 59.7957 106.9 58.0284V38.8284ZM110.1 48.4284C110.1 47.5448 110.816 46.8284 111.7 46.8284H121.3C122.184 46.8284 122.9 47.5448 122.9 48.4284C122.9 49.3121 122.184 50.0284 121.3 50.0284H111.7C110.816 50.0284 110.1 49.3121 110.1 48.4284ZM111.7 53.2284C110.816 53.2284 110.1 53.9448 110.1 54.8284C110.1 55.7121 110.816 56.4284 111.7 56.4284H121.3C122.184 56.4284 122.9 55.7121 122.9 54.8284C122.9 53.9448 122.184 53.2284 121.3 53.2284H111.7Z" fill="#F3F4F6"/>
<path fill-rule="evenodd" clip-rule="evenodd" d="M139.9 38.8284C139.9 37.0611 141.333 35.6284 143.1 35.6284H150.437C151.286 35.6284 152.1 35.9656 152.7 36.5657L158.163 42.0284C158.763 42.6285 159.1 43.4425 159.1 44.2912V58.0284C159.1 59.7957 157.667 61.2284 155.9 61.2284H143.1C141.333 61.2284 139.9 59.7957 139.9 58.0284V38.8284ZM143.1 48.4284C143.1 47.5448 143.816 46.8284 144.7 46.8284H154.3C155.184 46.8284 155.9 47.5448 155.9 48.4284C155.9 49.3121 155.184 50.0284 154.3 50.0284H144.7C143.816 50.0284 143.1 49.3121 143.1 48.4284ZM144.7 53.2284C143.816 53.2284 143.1 53.9448 143.1 54.8284C143.1 55.7121 143.816 56.4284 144.7 56.4284H154.3C155.184 56.4284 155.9 55.7121 155.9 54.8284C155.9 53.9448 155.184 53.2284 154.3 53.2284H144.7Z" fill="#D1D5DB"/>
<path fill-rule="evenodd" clip-rule="evenodd" d="M95.9 30.8284C95.9 29.0611 97.3327 27.6284 99.1 27.6284H106.437C107.286 27.6284 108.1 27.9656 108.7 28.5657L114.163 34.0284C114.763 34.6285 115.1 35.4425 115.1 36.2912V50.0284C115.1 51.7957 113.667 53.2284 111.9 53.2284H99.1C97.3327 53.2284 95.9 51.7957 95.9 50.0284V30.8284ZM99.1 40.4284C99.1 39.5448 99.8164 38.8284 100.7 38.8284H110.3C111.184 38.8284 111.9 39.5448 111.9 40.4284C111.9 41.3121 111.184 42.0284 110.3 42.0284H100.7C99.8164 42.0284 99.1 41.3121 99.1 40.4284ZM100.7 45.2284C99.8164 45.2284 99.1 45.9448 99.1 46.8284C99.1 47.7121 99.8164 48.4284 100.7 48.4284H110.3C111.184 48.4284 111.9 47.7121 111.9 46.8284C111.9 45.9448 111.184 45.2284 110.3 45.2284H100.7Z" fill="#D1D5DB"/>
<path fill-rule="evenodd" clip-rule="evenodd" d="M149.9 43.8284C149.9 42.0611 151.333 40.6284 153.1 40.6284H160.437C161.286 40.6284 162.1 40.9656 162.7 41.5657L168.163 47.0284C168.763 47.6285 169.1 48.4425 169.1 49.2912V63.0284C169.1 64.7957 167.667 66.2284 165.9 66.2284H153.1C151.333 66.2284 149.9 64.7957 149.9 63.0284V43.8284ZM153.1 53.4284C153.1 52.5448 153.816 51.8284 154.7 51.8284H164.3C165.184 51.8284 165.9 52.5448 165.9 53.4284C165.9 54.3121 165.184 55.0284 164.3 55.0284H154.7C153.816 55.0284 153.1 54.3121 153.1 53.4284ZM154.7 58.2284C153.816 58.2284 153.1 58.9448 153.1 59.8284C153.1 60.7121 153.816 61.4284 154.7 61.4284H164.3C165.184 61.4284 165.9 60.7121 165.9 59.8284C165.9 58.9448 165.184 58.2284 164.3 58.2284H154.7Z" fill="#9CA3AF"/>
<path fill-rule="evenodd" clip-rule="evenodd" d="M87.4 40.8284C87.4 39.0611 88.8327 37.6284 90.6 37.6284H97.9373C98.786 37.6284 99.5999 37.9656 100.2 38.5657L105.663 44.0284C106.263 44.6285 106.6 45.4425 106.6 46.2912V60.0284C106.6 61.7957 105.167 63.2284 103.4 63.2284H90.6C88.8327 63.2284 87.4 61.7957 87.4 60.0284V40.8284ZM90.6 50.4284C90.6 49.5448 91.3164 48.8284 92.2 48.8284H101.8C102.684 48.8284 103.4 49.5448 103.4 50.4284C103.4 51.3121 102.684 52.0284 101.8 52.0284H92.2C91.3164 52.0284 90.6 51.3121 90.6 50.4284ZM92.2 55.2284C91.3164 55.2284 90.6 55.9448 90.6 56.8284C90.6 57.7121 91.3164 58.4284 92.2 58.4284H101.8C102.684 58.4284 103.4 57.7121 103.4 56.8284C103.4 55.9448 102.684 55.2284 101.8 55.2284H92.2Z" fill="#9CA3AF"/>
</svg>
