<svg xmlns="http://www.w3.org/2000/svg" viewBox="0 0 186.22 97.48"><defs><style>.cls-1{fill:#e94e1b;}.cls-1,.cls-2,.cls-3{stroke:#fff;stroke-miterlimit:10;stroke-width:8.74px;}.cls-2{fill:#f9b233;}.cls-3{fill:#83ff9a;}</style></defs><g id="Layer_2" data-name="Layer 2"><g id="Layer_1-2" data-name="Layer 1"><path class="cls-1" d="M4.37,93.11H40.86A52,52,0,0,1,54.31,58.16L28.2,32.61A88.09,88.09,0,0,0,4.37,93.11Z"/><path class="cls-2" d="M93.11,4.37A88.11,88.11,0,0,0,34,27l26.2,25.63a52.15,52.15,0,0,1,65.24-.53L151.63,26.4A88.06,88.06,0,0,0,93.11,4.37Z"/><path class="cls-3" d="M181.86,93.11A88.13,88.13,0,0,0,157.45,32L131.34,57.54a52,52,0,0,1,14,35.57Z"/></g></g></svg>