<svg xmlns="http://www.w3.org/2000/svg" viewBox="0 0 147.69 43.1"><defs><style>.cls-1{fill:#1d1d1b;}</style></defs><g id="Layer_2" data-name="Layer 2"><g id="Layer_1-2" data-name="Layer 1"><path class="cls-1" d="M109.41,14.56c.15,1.3,1.5,2.15,3.25,2.15s3-.84,3-2-.75-1.59-2.65-2l-2-.45c-2.9-.62-4.33-2.1-4.33-4.4,0-2.9,2.51-4.82,6-4.82,3.67,0,6,1.89,6,4.73h-3.08c-.11-1.33-1.28-2.13-2.93-2.13s-2.71.77-2.71,1.94c0,1,.76,1.51,2.57,1.93l1.91.4c3.15.68,4.53,2,4.53,4.43,0,3.06-2.48,5-6.38,5s-6.2-1.8-6.3-4.76Z" transform="translate(-53.62 -3.03)"/><path class="cls-1" d="M131.36,19H120.93V3.3h10.43V6h-7.14v3.8H131v2.53h-6.73v4h7.14Z" transform="translate(-53.62 -3.03)"/><path class="cls-1" d="M148.43,11.18c0,5-2.93,8.14-7.59,8.14s-7.59-3.13-7.59-8.14S136.17,3,140.84,3,148.43,6.16,148.43,11.18Zm-11.82,0c0,3.29,1.64,5.38,4.23,5.38s4.22-2.09,4.22-5.38-1.65-5.4-4.22-5.4S136.61,7.87,136.61,11.18Z" transform="translate(-53.62 -3.03)"/><path class="cls-1" d="M53.62,38c0-5.07,2.9-8.14,7.46-8.14,3.78,0,6.66,2.4,6.91,5.93h-3.2a3.66,3.66,0,0,0-3.71-3.2C58.59,32.57,57,34.65,57,38s1.58,5.43,4.1,5.43a3.55,3.55,0,0,0,3.71-3H68c-.37,3.52-3.06,5.74-6.92,5.74C56.49,46.13,53.62,43.07,53.62,38Z" transform="translate(-53.62 -3.03)"/><path class="cls-1" d="M69.36,39.85c0-3.84,2.31-6.21,5.92-6.21s5.93,2.36,5.93,6.21-2.28,6.22-5.93,6.22S69.36,43.73,69.36,39.85Zm8.61,0c0-2.37-1-3.77-2.69-3.77s-2.69,1.41-2.69,3.77,1,3.76,2.69,3.76S78,42.24,78,39.85Z" transform="translate(-53.62 -3.03)"/><path class="cls-1" d="M82.91,33.85H86V36h.06a3.78,3.78,0,0,1,3.75-2.33c2.67,0,4.17,1.68,4.17,4.49v7.7H90.79v-7c0-1.59-.75-2.5-2.25-2.5A2.41,2.41,0,0,0,86.09,39v6.85H82.91Z" transform="translate(-53.62 -3.03)"/><path class="cls-1" d="M100.12,31.17v2.68h2.22v2.41h-2.22v5.83c0,.93.45,1.38,1.42,1.38a6,6,0,0,0,.8,0v2.35a8.06,8.06,0,0,1-1.54.13c-2.78,0-3.87-.94-3.87-3.28V36.26H95.3V33.85h1.63V31.17Z" transform="translate(-53.62 -3.03)"/><path class="cls-1" d="M114.89,42.19c-.35,2.33-2.52,3.88-5.45,3.88-3.65,0-5.89-2.35-5.89-6.17s2.25-6.26,5.77-6.26S115,36,115,39.61v1h-8.3v.2a2.71,2.71,0,0,0,2.81,2.9,2.41,2.41,0,0,0,2.45-1.5Zm-8.16-3.58h5.18A2.48,2.48,0,0,0,109.36,36,2.62,2.62,0,0,0,106.73,38.61Z" transform="translate(-53.62 -3.03)"/><path class="cls-1" d="M116.7,33.85h3.08V36h.06a3.78,3.78,0,0,1,3.75-2.33c2.67,0,4.17,1.68,4.17,4.49v7.7h-3.18v-7c0-1.59-.75-2.5-2.25-2.5A2.41,2.41,0,0,0,119.88,39v6.85H116.7Z" transform="translate(-53.62 -3.03)"/><path class="cls-1" d="M133.91,31.17v2.68h2.22v2.41h-2.22v5.83c0,.93.45,1.38,1.42,1.38a6,6,0,0,0,.8,0v2.35a8.06,8.06,0,0,1-1.54.13c-2.78,0-3.87-.94-3.87-3.28V36.26h-1.63V33.85h1.63V31.17Z" transform="translate(-53.62 -3.03)"/><path class="cls-1" d="M145.57,41.37c.15,1.3,1.5,2.15,3.25,2.15s3-.84,3-2-.76-1.6-2.66-2l-2.05-.45c-2.9-.62-4.33-2.09-4.33-4.39,0-2.91,2.51-4.83,6-4.83s6,1.89,6,4.74H151.7c-.11-1.33-1.28-2.14-2.92-2.14s-2.72.77-2.72,1.94c0,1,.76,1.52,2.57,1.93l1.91.41c3.16.67,4.53,2,4.53,4.43,0,3.05-2.48,5-6.38,5s-6.2-1.8-6.3-4.76Z" transform="translate(-53.62 -3.03)"/><path class="cls-1" d="M164.75,38.28a2.33,2.33,0,0,0-2.43-2.13c-1.64,0-2.68,1.39-2.68,3.7s1,3.7,2.69,3.7a2.27,2.27,0,0,0,2.43-2.06h3c-.19,2.8-2.28,4.58-5.44,4.58-3.59,0-5.88-2.36-5.88-6.22s2.29-6.21,5.86-6.21c3.23,0,5.29,2,5.45,4.64Z" transform="translate(-53.62 -3.03)"/><path class="cls-1" d="M168.87,39.85c0-3.84,2.32-6.21,5.93-6.21s5.92,2.36,5.92,6.21-2.28,6.22-5.92,6.22S168.87,43.73,168.87,39.85Zm8.61,0c0-2.37-1-3.77-2.68-3.77s-2.7,1.41-2.7,3.77,1,3.76,2.7,3.76S177.48,42.24,177.48,39.85Z" transform="translate(-53.62 -3.03)"/><path class="cls-1" d="M182.42,33.85h3.08V36h.07a2.82,2.82,0,0,1,2.86-2.29,3.3,3.3,0,0,1,.92.11v2.82a3.38,3.38,0,0,0-1.18-.19,2.41,2.41,0,0,0-2.56,2.69v6.72h-3.19Z" transform="translate(-53.62 -3.03)"/><path class="cls-1" d="M201.21,42.19c-.35,2.33-2.52,3.88-5.44,3.88-3.66,0-5.89-2.35-5.89-6.17s2.24-6.26,5.77-6.26,5.66,2.31,5.66,6v1H193v.2a2.7,2.7,0,0,0,2.8,2.9,2.43,2.43,0,0,0,2.46-1.5Zm-8.16-3.58h5.18A2.48,2.48,0,0,0,195.68,36,2.62,2.62,0,0,0,193.05,38.61Z" transform="translate(-53.62 -3.03)"/></g></g></svg>