<svg id="eMAdThvW01j1" xmlns="http://www.w3.org/2000/svg" xmlns:xlink="http://www.w3.org/1999/xlink" viewBox="0 0 1200 480" shape-rendering="geometricPrecision" text-rendering="geometricPrecision"><g transform="translate(.000001 0.000001)"><rect width="78.703021" height="83.434046" rx="0" ry="0" transform="translate(1121.296978 396.565954)" fill="#f6af7c" stroke-width="0"/><rect width="78.703021" height="83.434046" rx="0" ry="0" transform="translate(963.890936 396.565954)" fill="rgba(246,175,124,0.74)" stroke-width="0"/><rect width="78.703021" height="83.434046" rx="0" ry="0" transform="translate(1121.296982 313.131908)" fill="rgba(246,175,124,0.74)" stroke-width="0"/><rect width="78.703021" height="83.434046" rx="0" ry="0" transform="translate(1042.593961 396.565954)" fill="rgba(246,175,124,0.88)" stroke-width="0"/><rect width="78.703021" height="83.434046" rx="0" ry="0" transform="translate(1121.296978 229.697862)" fill="rgba(246,175,124,0.88)" stroke-width="0"/><rect width="78.703021" height="83.434046" rx="0" ry="0" transform="translate(1042.593957 313.131908)" fill="#f6af7c" stroke-width="0"/></g><g transform="matrix(-.00616 0.999981-.999981-.00616 487.383452-718.562181)"><rect width="78.703021" height="83.434046" rx="0" ry="0" transform="translate(1121.296978 396.565954)" fill="#f6af7c" stroke-width="0"/><rect width="78.703021" height="83.434046" rx="0" ry="0" transform="translate(963.890936 396.565954)" fill="rgba(246,175,124,0.74)" stroke-width="0"/><rect width="78.703021" height="83.434046" rx="0" ry="0" transform="translate(1121.296982 313.131908)" fill="rgba(246,175,124,0.74)" stroke-width="0"/><rect width="78.703021" height="83.434046" rx="0" ry="0" transform="translate(1042.593961 396.565954)" fill="rgba(246,175,124,0.88)" stroke-width="0"/><rect width="78.703021" height="83.434046" rx="0" ry="0" transform="translate(1121.296978 229.697862)" fill="rgba(246,175,124,0.88)" stroke-width="0"/><rect width="78.703021" height="83.434046" rx="0" ry="0" transform="translate(1042.593957 313.131908)" fill="#f6af7c" stroke-width="0"/></g></svg>