<svg xmlns="http://www.w3.org/2000/svg" viewBox="0 0 254.75 239.09"><defs><style>.cls-1{fill:#fff;}.cls-2{fill:#e94e1b;}.cls-2,.cls-3,.cls-4{stroke:#fff;stroke-miterlimit:10;stroke-width:8.74px;}.cls-3{fill:#f9b233;}.cls-4{fill:#83ff9a;}.cls-5{fill:#1d1d1b;}</style></defs><g id="Layer_2" data-name="Layer 2"><g id="Layer_1-2" data-name="Layer 1"><rect class="cls-1" width="254.75" height="239.09" rx="12"/><path class="cls-2" d="M73.45,194.72h36.49a52.09,52.09,0,0,1,13.45-35L97.28,134.21A88.1,88.1,0,0,0,73.45,194.72Z" transform="translate(-35.78)"/><path class="cls-3" d="M162.19,106A88.11,88.11,0,0,0,103,128.56l26.2,25.64a52.15,52.15,0,0,1,65.24-.53L220.71,128A88.11,88.11,0,0,0,162.19,106Z" transform="translate(-35.78)"/><path class="cls-4" d="M250.93,194.72a88.08,88.08,0,0,0-24.4-61.12l-26.11,25.54a52.09,52.09,0,0,1,14,35.58Z" transform="translate(-35.78)"/><path class="cls-5" d="M109.41,46.71c.15,1.3,1.5,2.15,3.25,2.15s3-.84,3-2-.75-1.59-2.65-2l-2-.45c-2.9-.62-4.33-2.1-4.33-4.4,0-2.9,2.51-4.82,6-4.82,3.67,0,6,1.89,6,4.73h-3.08c-.11-1.33-1.28-2.13-2.93-2.13s-2.71.77-2.71,1.94c0,1,.76,1.51,2.57,1.93l1.91.4c3.15.68,4.53,2,4.53,4.43,0,3.06-2.48,5-6.38,5s-6.2-1.8-6.3-4.76Z" transform="translate(-35.78)"/><path class="cls-5" d="M131.36,51.2H120.93V35.45h10.43v2.72h-7.14V42H131V44.5h-6.73v4h7.14Z" transform="translate(-35.78)"/><path class="cls-5" d="M148.43,43.33c0,5-2.93,8.14-7.59,8.14s-7.59-3.13-7.59-8.14,2.92-8.15,7.59-8.15S148.43,38.31,148.43,43.33Zm-11.82,0c0,3.29,1.64,5.38,4.23,5.38s4.22-2.09,4.22-5.38-1.65-5.4-4.22-5.4S136.61,40,136.61,43.33Z" transform="translate(-35.78)"/><path class="cls-5" d="M53.62,70.13c0-5.07,2.9-8.14,7.46-8.14,3.78,0,6.66,2.4,6.91,5.93h-3.2a3.66,3.66,0,0,0-3.71-3.2c-2.49,0-4.09,2.08-4.09,5.4s1.58,5.43,4.1,5.43a3.55,3.55,0,0,0,3.71-3H68c-.37,3.52-3.06,5.74-6.92,5.74C56.49,78.28,53.62,75.22,53.62,70.13Z" transform="translate(-35.78)"/><path class="cls-5" d="M69.36,72c0-3.84,2.31-6.21,5.92-6.21s5.93,2.36,5.93,6.21-2.28,6.22-5.93,6.22S69.36,75.88,69.36,72ZM78,72c0-2.37-1-3.77-2.69-3.77S72.59,69.64,72.59,72s1,3.76,2.69,3.76S78,74.39,78,72Z" transform="translate(-35.78)"/><path class="cls-5" d="M82.91,66H86v2.15h.06a3.78,3.78,0,0,1,3.75-2.33c2.67,0,4.17,1.68,4.17,4.49V78H90.79V71c0-1.59-.75-2.5-2.25-2.5a2.41,2.41,0,0,0-2.45,2.69V78H82.91Z" transform="translate(-35.78)"/><path class="cls-5" d="M100.12,63.32V66h2.22v2.41h-2.22v5.84c0,.92.45,1.37,1.42,1.37a6,6,0,0,0,.8-.05v2.35a8.06,8.06,0,0,1-1.54.13c-2.78,0-3.87-.94-3.87-3.28V68.41H95.3V66h1.63V63.32Z" transform="translate(-35.78)"/><path class="cls-5" d="M114.89,74.34c-.35,2.33-2.52,3.88-5.45,3.88-3.65,0-5.89-2.35-5.89-6.17s2.25-6.26,5.77-6.26,5.67,2.31,5.67,6v1h-8.3v.2a2.71,2.71,0,0,0,2.81,2.9,2.41,2.41,0,0,0,2.45-1.5Zm-8.16-3.58h5.18a2.48,2.48,0,0,0-2.55-2.59A2.62,2.62,0,0,0,106.73,70.76Z" transform="translate(-35.78)"/><path class="cls-5" d="M116.7,66h3.08v2.15h.06a3.78,3.78,0,0,1,3.75-2.33c2.67,0,4.17,1.68,4.17,4.49V78h-3.18V71c0-1.59-.75-2.5-2.25-2.5a2.41,2.41,0,0,0-2.45,2.69V78H116.7Z" transform="translate(-35.78)"/><path class="cls-5" d="M133.91,63.32V66h2.22v2.41h-2.22v5.84c0,.92.45,1.37,1.42,1.37a6,6,0,0,0,.8-.05v2.35a8.06,8.06,0,0,1-1.54.13c-2.78,0-3.87-.94-3.87-3.28V68.41h-1.63V66h1.63V63.32Z" transform="translate(-35.78)"/><path class="cls-5" d="M145.57,73.52c.15,1.3,1.5,2.15,3.25,2.15s3-.84,3-2-.76-1.59-2.66-2l-2.05-.45c-2.9-.62-4.33-2.09-4.33-4.39,0-2.91,2.51-4.83,6-4.83s6,1.89,6,4.74H151.7c-.11-1.33-1.28-2.14-2.92-2.14s-2.72.77-2.72,1.94c0,1,.76,1.52,2.57,1.93l1.91.41c3.16.67,4.53,2,4.53,4.43,0,3-2.48,5-6.38,5s-6.2-1.8-6.3-4.76Z" transform="translate(-35.78)"/><path class="cls-5" d="M164.75,70.43a2.33,2.33,0,0,0-2.43-2.13c-1.64,0-2.68,1.4-2.68,3.7s1,3.7,2.69,3.7a2.27,2.27,0,0,0,2.43-2.06h3c-.19,2.8-2.28,4.58-5.44,4.58-3.59,0-5.88-2.36-5.88-6.22s2.29-6.21,5.86-6.21c3.23,0,5.29,2,5.45,4.64Z" transform="translate(-35.78)"/><path class="cls-5" d="M168.87,72c0-3.84,2.32-6.21,5.93-6.21s5.92,2.36,5.92,6.21-2.28,6.22-5.92,6.22S168.87,75.88,168.87,72Zm8.61,0c0-2.37-1-3.77-2.68-3.77s-2.7,1.41-2.7,3.77,1,3.76,2.7,3.76S177.48,74.39,177.48,72Z" transform="translate(-35.78)"/><path class="cls-5" d="M182.42,66h3.08v2.15h.07a2.82,2.82,0,0,1,2.86-2.29,3.3,3.3,0,0,1,.92.11v2.82a3.38,3.38,0,0,0-1.18-.19,2.41,2.41,0,0,0-2.56,2.69V78h-3.19Z" transform="translate(-35.78)"/><path class="cls-5" d="M201.21,74.34c-.35,2.33-2.52,3.88-5.44,3.88-3.66,0-5.89-2.35-5.89-6.17s2.24-6.26,5.77-6.26,5.66,2.31,5.66,6v1H193v.2a2.7,2.7,0,0,0,2.8,2.9,2.43,2.43,0,0,0,2.46-1.5Zm-8.16-3.58h5.18a2.48,2.48,0,0,0-2.55-2.59A2.62,2.62,0,0,0,193.05,70.76Z" transform="translate(-35.78)"/></g></g></svg>