<svg xmlns="http://www.w3.org/2000/svg" version="1.1" xmlns:xlink="http://www.w3.org/1999/xlink" xmlns:svgjs="http://svgjs.com/svgjs" width="2500" height="5000" preserveAspectRatio="none" viewBox="0 0 2500 5000">
    <g mask="url(&quot;#SvgjsMask1105&quot;)" fill="none">
        <rect width="2500" height="5000" x="0" y="0" fill="rgba(31, 41, 55, 1)"></rect>
        <path d="M0,1028.725C251.661,1022.034,525.16,1282.495,731.748,1138.622C940.745,993.071,840.179,656.753,892.131,407.422C931.086,220.469,1000.95,47.333,998.925,-143.624C996.652,-357.968,1022.852,-602.713,879.728,-762.288C736.755,-921.695,476.434,-866.441,278.14,-947.258C48.486,-1040.856,-137.113,-1347.089,-373.844,-1273.197C-611.896,-1198.893,-602.518,-846.888,-730.029,-632.573C-830.035,-464.488,-971.056,-332.032,-1042.205,-149.846C-1129.87,74.631,-1239.715,307.443,-1189.148,543.066C-1134.312,798.578,-999.12,1079.402,-757.189,1178.209C-514.095,1277.491,-262.493,1035.704,0,1028.725" fill="#19212d"></path>
        <path d="M2500 6498.036C2789.849 6488.507 3065.634 6413.454 3325.0280000000002 6283.769 3609.243 6141.674 3941.328 6007.443 4065.934 5715.138 4190.166 5423.71 4033.964 5098.306 3961.882 4789.813 3895.938 4507.591 3837.523 4223.606 3663.306 3991.989 3480.999 3749.616 3244.652 3540.34 2954.8360000000002 3450.9700000000003 2663.111 3361.011 2352.998 3415.9179999999997 2058.735 3497.19 1760.618 3579.526 1432.418 3667.763 1254.336 3920.626 1079.754 4168.52 1149.196 4501.208 1138.249 4804.21 1128.492 5074.261 1109.926 5339.642 1193.788 5596.527 1285.232 5876.636 1396.848 6171.816 1639.356 6339.188 1884.414 6508.32 2202.404 6507.82 2500 6498.036" fill="#253142"></path>
    </g>
    <defs>
        <mask id="SvgjsMask1105">
            <rect width="2500" height="5000" fill="#ffffff"></rect>
        </mask>
    </defs>
</svg>